<svg width="59" height="56" viewBox="0 0 59 56" fill="none" xmlns="http://www.w3.org/2000/svg">
<path d="M57.9155 20.1826L57.9542 20.1422C58.1403 19.9681 58.2861 19.7554 58.3816 19.5192C58.477 19.2829 58.5198 19.0286 58.5068 18.7741C58.4897 18.5135 58.416 18.2598 58.2909 18.0305C58.1658 17.8012 57.9922 17.6019 57.7824 17.4465L53.5787 14.1526C53.5568 14.1779 53.5349 14.1998 53.5147 14.2251C51.3531 16.6597 49.6497 17.6807 46.6069 18.4186L44.6138 18.9039L45.2119 16.941C46.6187 12.3313 46.5311 7.7385 44.976 4.65695C43.741 2.02188 41.5659 0.869457 39.9569 0.364009C36.9242 -0.571071 33.5124 0.325258 31.0661 2.70929C27.9862 5.65774 26.918 10.2792 28.2018 15.0776C28.928 17.8053 30.4781 20.2382 32.8132 22.3106L33.6287 23.0334L32.9665 23.8977C32.4493 24.5716 29.7654 27.9733 27.6661 28.5697L27.105 28.7382L26.6383 28.3844C24.2526 26.5749 22.8559 22.2415 22.8845 19.0993C22.8845 15.3758 23.6747 9.75356 25.1641 2.84913C25.2241 2.57727 25.2196 2.29513 25.1508 2.02535C25.082 1.75558 24.951 1.50568 24.7682 1.29572C24.5959 1.07837 24.3759 0.903605 24.1252 0.78498C23.8745 0.666356 23.5999 0.607057 23.3226 0.611679L19.5823 0.734671C18.7129 0.761628 17.9968 1.34626 17.8823 2.12297L17.8671 2.20216C16.1115 10.2135 15.6448 15.8695 15.564 19.2071C15.5264 21.1215 15.7809 23.0305 16.3188 24.8681L16.4872 25.4663L16.0879 25.9464C14.5716 27.7374 13.2237 28.7972 12.073 29.0937L11.5254 29.2352L11.0739 28.8983C8.75051 27.1258 7.42792 22.902 7.32009 19.6469C7.32009 15.8813 8.11028 10.259 9.59967 3.34952C9.65738 3.07939 9.6523 2.79961 9.58482 2.53175C9.51734 2.26389 9.38927 2.01509 9.21047 1.80454C9.04418 1.59385 8.83294 1.42295 8.59217 1.30431C8.35141 1.18568 8.08719 1.1223 7.8188 1.11881H7.76489L4.02625 1.2418C3.22765 1.26708 2.50991 1.89383 2.30605 2.72951C0.550455 10.7206 0.0837579 16.3783 0.00120129 19.7126C-0.0864097 27.2943 4.63111 35.1456 9.89619 36.1717C12.966 36.8776 15.8217 36.02 18.9168 33.4759C19.1232 33.2538 19.3652 33.0676 19.6328 32.925L20.4045 32.5088L21.0211 33.1339C22.369 34.5087 23.9022 35.4051 25.3191 35.6612C28.5068 36.3705 31.4182 35.4927 34.5334 32.9216C36.3008 31.4053 38.4507 28.9269 40.1271 26.4553L40.523 25.8723L41.2239 25.9498C44.4952 26.3393 47.8121 25.9192 50.883 24.7266C51.9658 24.3459 53.0175 23.8817 54.0286 23.3383C55.3512 22.6054 56.5171 21.6754 57.9155 20.1826ZM38.203 14.8754L37.4263 17.6908L36.0346 15.118C35.7246 14.5504 35.4734 13.9525 35.2849 13.3338C34.5402 10.446 35.3826 7.84633 37.1803 7.383L37.583 7.28023L37.9621 7.44871C39.8187 8.31134 38.609 13.3523 38.1946 14.8754H38.203Z" fill="#52439A"/>
<path d="M27.2952 44.7256C26.8486 44.5195 26.3617 44.4153 25.8698 44.4206C25.4767 44.4191 25.0879 44.5036 24.7309 44.6683C24.3798 44.8267 24.0739 45.0706 23.8413 45.3776C23.7225 45.5367 23.6176 45.7058 23.5279 45.883L23.3712 44.7997C23.3637 44.7488 23.3445 44.7003 23.3153 44.658C23.2861 44.6156 23.2476 44.5805 23.2027 44.5554C23.1196 44.5095 23.0235 44.4929 22.9298 44.5082L21.8987 44.6531C21.8521 44.6546 21.8064 44.6656 21.7644 44.6856C21.7223 44.7056 21.6849 44.7342 21.6544 44.7694C21.6249 44.8096 21.6042 44.8556 21.5938 44.9044C21.5833 44.9532 21.5833 45.0036 21.5937 45.0524L21.9037 47.3943V52.4101C21.8993 52.4554 21.905 52.5012 21.9203 52.5441C21.9357 52.587 21.9604 52.626 21.9926 52.6582C22.0248 52.6904 22.0638 52.7151 22.1067 52.7305C22.1496 52.7458 22.1954 52.7515 22.2407 52.747H23.4201C23.464 52.7496 23.508 52.7425 23.5489 52.7261C23.5898 52.7098 23.6266 52.6846 23.6567 52.6525C23.6868 52.6203 23.7094 52.5819 23.7229 52.54C23.7365 52.4981 23.7407 52.4537 23.7352 52.4101V47.6403C23.846 47.3761 23.9897 47.127 24.1631 46.899C24.3394 46.6626 24.5707 46.4729 24.837 46.3464C25.09 46.2245 25.3667 46.1601 25.6474 46.1577C26.0209 46.1514 26.3898 46.2407 26.719 46.4171H26.7375C26.7907 46.4402 26.848 46.4521 26.906 46.4521C26.964 46.4521 27.0213 46.4402 27.0745 46.4171C27.1262 46.3917 27.1723 46.3563 27.2102 46.3129C27.2481 46.2695 27.277 46.219 27.2952 46.1644L27.5749 45.2445C27.6004 45.1387 27.586 45.0273 27.5344 44.9315C27.4827 44.8357 27.3976 44.7624 27.2952 44.7256Z" fill="#52439A"/>
<path d="M41.997 44.4189C41.301 44.4057 40.6142 44.5803 40.0089 44.9244C39.5627 45.1848 39.1777 45.5381 38.8801 45.9605L38.7335 44.8098C38.721 44.7186 38.6762 44.6349 38.6072 44.5739C38.5706 44.5418 38.527 44.5186 38.48 44.506C38.4329 44.4934 38.3836 44.4919 38.3359 44.5015L37.2745 44.648C37.1798 44.6625 37.0942 44.7125 37.0352 44.7879C37.0057 44.8229 36.9842 44.864 36.9722 44.9083C36.9603 44.9525 36.9582 44.9988 36.9661 45.044L37.2576 47.3606V55.6618C37.2535 55.7071 37.2593 55.7527 37.2748 55.7955C37.2903 55.8382 37.315 55.8771 37.3471 55.9092C37.3793 55.9414 37.4181 55.9661 37.4609 55.9815C37.5036 55.997 37.5493 56.0029 37.5946 55.9987L38.7335 55.9347H38.7504C38.8332 55.9274 38.9099 55.8882 38.9643 55.8253C39.0187 55.7624 39.0465 55.6808 39.0418 55.5977V51.9299C39.3293 52.2247 39.6678 52.465 40.0409 52.6392C40.5508 52.8747 41.1069 52.9933 41.6685 52.9863C42.2164 52.9904 42.7595 52.8844 43.2657 52.6746C43.7502 52.4742 44.1837 52.1679 44.5344 51.7782C44.8936 51.3707 45.1685 50.896 45.3431 50.3815C45.5361 49.8148 45.6318 49.2195 45.6261 48.6209C45.6261 47.3792 45.2892 46.3581 44.6254 45.5882C44.303 45.2087 43.8993 44.9066 43.4444 44.7042C42.9894 44.5018 42.4948 44.4043 41.997 44.4189ZM43.8588 48.6209C43.8588 49.4751 43.6532 50.1743 43.2455 50.7C43.0659 50.9473 42.8288 51.1472 42.5546 51.2822C42.2804 51.4173 41.9774 51.4834 41.6719 51.475C41.1397 51.4756 40.6167 51.3361 40.1555 51.0706C39.7012 50.8124 39.3197 50.4431 39.0469 49.9974V47.7919C39.2979 47.2758 39.6745 46.8309 40.142 46.498C40.5756 46.1913 41.0936 46.0265 41.6247 46.0262C41.93 46.0131 42.2343 46.0694 42.5147 46.1907C42.7952 46.3121 43.0444 46.4955 43.2438 46.7271C43.6515 47.1989 43.8588 47.8357 43.8588 48.6209Z" fill="#52439A"/>
<path d="M49.8267 51.6232C49.8233 51.5738 49.8082 51.5259 49.7828 51.4835C49.7573 51.441 49.7221 51.4052 49.6801 51.3789C49.6237 51.353 49.5621 51.3406 49.5001 51.3426C49.4381 51.3447 49.3774 51.3612 49.3229 51.3907C49.1567 51.4626 48.9766 51.4972 48.7956 51.4918C48.7334 51.4933 48.6718 51.4807 48.6152 51.4551C48.5586 51.4294 48.5085 51.3913 48.4687 51.3436C48.3738 51.2276 48.3251 51.0805 48.3322 50.9308V41.3694C48.3349 41.2536 48.2926 41.1413 48.2143 41.056C48.1723 41.01 48.1195 40.9752 48.0606 40.9549C48.0018 40.9346 47.9387 40.9294 47.8773 40.9397L46.8563 41.1082C46.7737 41.121 46.6983 41.1628 46.6437 41.2261C46.5891 41.2894 46.5587 41.37 46.5581 41.4536V50.9341C46.5581 51.5862 46.7384 52.0984 47.0939 52.4505C47.2799 52.6304 47.5005 52.7707 47.7423 52.8628C47.9841 52.9549 48.2422 52.9969 48.5007 52.9863C48.9256 52.9934 49.3448 52.8876 49.7155 52.6796C49.7993 52.6424 49.866 52.575 49.9025 52.4909C49.9404 52.4124 49.9523 52.3239 49.9362 52.2382L49.8267 51.6232Z" fill="#52439A"/>
<path d="M55.8465 49.9215C58.1126 49.5845 58.4445 48.1996 58.4917 47.7818C58.6433 46.4541 57.843 45.1198 56.6384 44.6766C56.4964 44.6245 56.3505 44.5839 56.202 44.5553L56.143 44.5452C55.9745 44.5132 55.8061 44.4795 55.6376 44.4627C55.3884 44.4309 55.1373 44.4163 54.8861 44.4189C54.412 44.433 53.9415 44.5071 53.486 44.6396C53.03 44.7742 52.5967 44.9764 52.2005 45.2394C51.7965 45.5067 51.4522 45.8549 51.1896 46.2621C50.9382 46.6467 50.7504 47.0694 50.6336 47.5139C50.5243 47.947 50.4766 48.3934 50.4921 48.8399C50.5053 49.4337 50.6346 50.0193 50.8729 50.5634C51.0987 51.0734 51.4327 51.5281 51.8518 51.8961C52.2842 52.2676 52.7866 52.5489 53.3294 52.7234C53.8638 52.8955 54.4224 52.9808 54.9839 52.9761C55.0479 52.9761 55.1136 52.9761 55.181 52.9761C55.6016 52.9576 56.0187 52.8915 56.4244 52.779C56.8387 52.6753 57.2359 52.5124 57.6038 52.2954L57.6509 52.2668C57.9559 52.0865 58.0452 52.0141 58.0705 51.9298C58.1007 51.8344 58.1007 51.732 58.0705 51.6367L57.6796 50.929C57.6655 50.8972 57.6454 50.8685 57.6202 50.8445C57.5951 50.8205 57.5654 50.8017 57.533 50.7892C57.4134 50.742 57.2567 50.7656 57.0124 50.8718C56.6921 51.03 56.359 51.1607 56.0167 51.2626C55.7305 51.3402 55.4367 51.3865 55.1405 51.4008C54.2981 51.4277 53.6242 51.1969 53.0952 50.7167C52.82 50.4662 52.6067 50.1554 52.4718 49.8086C53.58 50.0547 54.7243 50.0929 55.8465 49.9215ZM56.6889 48.0564C56.3519 48.5366 54.2206 48.6798 52.9284 48.4321C52.4229 48.3361 52.2881 48.2165 52.278 48.1811C52.3465 47.6672 52.5732 47.1873 52.9267 46.808C53.1772 46.5481 53.4781 46.3421 53.811 46.2025C54.1438 46.0628 54.5016 45.9925 54.8625 45.9959C55.2373 45.9861 55.6114 46.0315 55.9728 46.1306C56.015 46.1475 56.2037 46.225 56.4244 46.3345C56.5201 46.3811 56.6053 46.4468 56.6746 46.5277C56.7438 46.6086 56.7957 46.7028 56.8271 46.8046C56.9006 47.0098 56.9268 47.229 56.9037 47.4457C56.8807 47.6625 56.809 47.8712 56.694 48.0564H56.6889Z" fill="#52439A"/>
<path d="M34.3615 49.5964C34.439 49.5627 34.5114 49.5256 34.5805 49.4886C34.9629 49.2783 35.2978 48.9916 35.5645 48.6461C35.6383 48.554 35.7054 48.4566 35.765 48.3547C35.8308 48.2474 35.8871 48.1347 35.9334 48.0177C36.0216 47.7863 36.0722 47.5423 36.0834 47.2949C36.09 47.126 36.0815 46.9569 36.0581 46.7895C36.015 46.503 35.9304 46.2243 35.8071 45.9622C35.7402 45.823 35.663 45.689 35.5762 45.5612C35.422 45.3237 35.2374 45.1073 35.027 44.9176C34.8704 44.784 34.7011 44.6661 34.5215 44.5655L34.503 44.5537L34.4659 44.5318C34.4154 44.5032 34.3632 44.4762 34.3109 44.4526L34.1644 44.3886C34.0734 44.3515 33.979 44.3161 33.8813 44.2841C33.4721 44.1466 33.0402 44.0894 32.6093 44.1156C32.3951 44.1286 32.1825 44.1607 31.9741 44.2117C31.873 44.2403 31.7736 44.269 31.6674 44.3043L31.5866 44.3347C31.5175 44.3616 31.4467 44.3886 31.3793 44.4189C31.0023 44.586 30.6551 44.8137 30.3516 45.0928C30.3061 45.1333 30.2623 45.1737 30.2185 45.2175V41.3694C30.2209 41.2539 30.1794 41.1419 30.1022 41.056C30.0603 41.01 30.0074 40.9752 29.9486 40.9549C29.8897 40.9346 29.8267 40.9294 29.7653 40.9397L28.7291 41.1082C28.6462 41.1207 28.5704 41.1623 28.5154 41.2256C28.4605 41.2889 28.4299 41.3698 28.4292 41.4536V52.405C28.4248 52.4504 28.4304 52.4961 28.4458 52.539C28.4611 52.5819 28.4858 52.6209 28.518 52.6531C28.5503 52.6854 28.5892 52.71 28.6321 52.7254C28.675 52.7408 28.7208 52.7464 28.7662 52.742H29.9034C29.9475 52.7448 29.9917 52.7378 30.0328 52.7216C30.0739 52.7054 30.1109 52.6803 30.1412 52.6481C30.1714 52.6159 30.1942 52.5774 30.2079 52.5354C30.2215 52.4934 30.2257 52.4488 30.2202 52.405V49.4043C30.4324 49.4965 30.6495 49.5769 30.8705 49.6453C30.9666 49.6756 31.0643 49.7025 31.162 49.7295L31.2277 49.7447C31.5668 49.8318 31.913 49.8882 32.2622 49.9131C32.3953 49.9232 32.5318 49.9249 32.6632 49.9249L34.4036 52.528C34.4478 52.6015 34.511 52.6617 34.5867 52.702C34.6624 52.7424 34.7476 52.7614 34.8332 52.7571L35.9705 52.7403H35.9857C36.0461 52.7355 36.1042 52.7145 36.1537 52.6796C36.2032 52.6446 36.2424 52.5969 36.267 52.5415C36.2907 52.4856 36.2977 52.4241 36.2873 52.3643C36.2768 52.3045 36.2493 52.249 36.2081 52.2045L34.3615 49.5964ZM33.6876 45.9791C33.7263 45.9993 33.7651 46.0246 33.8038 46.0498C33.8426 46.0751 33.8982 46.1189 33.9403 46.1543C34.1034 46.2955 34.2373 46.4672 34.3345 46.6597C34.4252 46.8346 34.472 47.0289 34.471 47.2258C34.4687 47.3063 34.4539 47.3858 34.4272 47.4617C34.4156 47.4988 34.3998 47.5344 34.38 47.5679C34.3593 47.6085 34.3345 47.6469 34.3059 47.6824C34.167 47.8671 33.9929 48.0225 33.7936 48.1396C33.5944 48.2567 33.374 48.3332 33.145 48.3648C33.0096 48.3905 32.873 48.4091 32.7356 48.4204C32.6649 48.4204 32.5975 48.4305 32.5267 48.4322C32.5026 48.4339 32.4784 48.4339 32.4543 48.4322H32.3313C32.0479 48.4233 31.766 48.3889 31.4889 48.3294C31.2438 48.2771 31.0028 48.2072 30.7678 48.1205C30.6197 48.0665 30.4746 48.0046 30.3331 47.9352C30.3819 47.7953 30.4308 47.6774 30.4796 47.5679C30.5942 47.321 30.7312 47.0853 30.8891 46.8636C31.1807 46.4502 31.5774 46.1222 32.0381 45.9134L32.1291 45.878L32.2015 45.851L32.37 45.8038C32.4805 45.776 32.5933 45.7579 32.707 45.7499C32.9309 45.7362 33.1552 45.7666 33.3674 45.8392C33.4264 45.8578 33.4837 45.8797 33.5443 45.9032L33.6269 45.9386L33.6876 45.9791Z" fill="#52439A"/>
<path d="M20.7668 46.9932C20.5699 46.4818 20.2654 46.0187 19.8738 45.6353C19.4754 45.2535 19.0021 44.9586 18.4838 44.7693C17.348 44.3671 16.1085 44.3671 14.9726 44.7693C14.4545 44.9586 13.9816 45.2542 13.5843 45.637C13.1923 46.0197 12.8872 46.4822 12.6897 46.9932C12.6577 47.0758 12.6274 47.1617 12.5937 47.2712L12.5532 47.3959L12.6762 47.4414C12.7101 47.4545 12.7414 47.4733 12.7689 47.497L13.8387 48.3394C13.8723 48.3663 13.9039 48.3955 13.9331 48.427L14.1403 48.6444L14.1707 48.3462C14.2114 47.7592 14.455 47.2047 14.8598 46.7776C15.1036 46.5329 15.3956 46.3416 15.7172 46.2158C16.0388 46.0899 16.3831 46.0322 16.7282 46.0464C17.0736 46.0321 17.4182 46.0897 17.7401 46.2156C18.062 46.3414 18.3543 46.5328 18.5984 46.7776C19.0685 47.2628 19.306 47.9115 19.306 48.705C19.306 49.4986 19.0685 50.1708 18.5967 50.6679C18.3552 50.9166 18.064 51.1116 17.742 51.2402C17.4201 51.3688 17.0746 51.4281 16.7282 51.4142C16.382 51.4283 16.0368 51.3691 15.7151 51.2405C15.3934 51.1118 15.1025 50.9167 14.8614 50.6679C14.5613 50.35 14.3499 49.9591 14.2482 49.534L14.1774 49.2509L14.0089 49.4851C13.9812 49.5226 13.9508 49.5581 13.9179 49.5912C13.6101 49.9379 13.244 50.2281 12.8363 50.4488L12.7217 50.5078L12.7756 50.6257C12.9687 51.0674 13.245 51.4678 13.5894 51.8051C13.988 52.1883 14.4603 52.4863 14.9777 52.6812C16.1122 53.0946 17.3561 53.0946 18.4906 52.6812C19.0078 52.4869 19.4802 52.1894 19.8789 51.8068C20.2717 51.4212 20.5763 50.955 20.7718 50.4404C20.9833 49.8871 21.089 49.299 21.0835 48.7067C21.0885 48.1227 20.9827 47.543 20.7718 46.9983L20.7668 46.9932Z" fill="#52439A"/>
<path d="M13.6163 49.3049V49.2965C13.6601 49.2555 13.6944 49.2055 13.7168 49.1499C13.7392 49.0943 13.7492 49.0345 13.7461 48.9747C13.7424 48.9133 13.7255 48.8535 13.6964 48.7994C13.6673 48.7453 13.6268 48.6981 13.5776 48.6613L12.5903 47.8879L12.5751 47.9048C12.1679 48.4149 11.593 48.7641 10.9526 48.8904L10.4843 49.005L10.6241 48.5433C10.9611 47.46 10.9341 46.38 10.5685 45.6555C10.4551 45.4129 10.2912 45.1972 10.0879 45.0229C9.88448 44.8485 9.64627 44.7196 9.38911 44.6447C9.02351 44.5402 8.6365 44.5362 8.26884 44.6331C7.90117 44.7301 7.56645 44.9244 7.29992 45.1956C6.57545 45.8881 6.32441 46.9748 6.62599 48.1036C6.81068 48.7655 7.18843 49.3574 7.71102 49.8036L7.90309 49.9721L7.7464 50.1743C7.6251 50.3343 6.99329 51.1329 6.50132 51.2728L6.36821 51.3115L6.2587 51.2273C5.69765 50.8027 5.3708 49.7834 5.37585 49.0454C5.37585 48.1693 5.56287 46.8551 5.91163 45.2242C5.926 45.161 5.92526 45.0952 5.90945 45.0322C5.89364 44.9693 5.86322 44.911 5.82065 44.862C5.78114 44.81 5.73021 44.7677 5.67179 44.7385C5.61336 44.7093 5.549 44.6939 5.48368 44.6935L4.60588 44.7222C4.51138 44.7236 4.42037 44.7581 4.34866 44.8196C4.27695 44.8812 4.22906 44.9659 4.21332 45.0591V45.0776C3.90784 46.3899 3.7262 47.7279 3.6708 49.0741C3.6626 49.5242 3.72282 49.973 3.8494 50.4051L3.87635 50.5449L3.782 50.6561C3.4265 51.0773 3.10807 51.33 2.83681 51.3974L2.70877 51.4295L2.60262 51.3486C2.05674 50.9341 1.74505 49.9434 1.71977 49.1768C1.71977 48.2923 1.90679 46.9697 2.25555 45.3455C2.26861 45.2828 2.26777 45.2179 2.2531 45.1554C2.23844 45.093 2.21029 45.0345 2.17064 44.9841C2.13099 44.9337 2.0808 44.8926 2.02358 44.8636C1.96636 44.8347 1.90349 44.8186 1.8394 44.8165H1.82592L0.948122 44.8451C0.851786 44.8522 0.760286 44.8901 0.68716 44.9532C0.614033 45.0163 0.563164 45.1013 0.542079 45.1956C0.236072 46.5094 0.0549895 47.8492 0.00124887 49.1971C-0.0189691 50.9779 1.08965 52.8245 2.328 53.0722C3.0491 53.2406 3.72135 53.0368 4.44919 52.4387C4.49771 52.3868 4.55468 52.3435 4.61768 52.3106L4.79964 52.2112L4.94453 52.3595C5.21418 52.6543 5.56649 52.861 5.95543 52.9525C6.70518 53.121 7.38922 52.9138 8.12044 52.3089C8.61951 51.8593 9.06143 51.35 9.43629 50.7926L9.52895 50.6561L9.69743 50.673C10.4657 50.7614 11.2439 50.6595 11.9635 50.3764C12.2187 50.284 12.466 50.1714 12.7032 50.0395C13.0453 49.8456 13.3537 49.5976 13.6163 49.3049ZM8.9797 48.0581L8.79942 48.7203L8.47256 48.1154C8.39929 47.9826 8.34 47.8426 8.29566 47.6976C8.12718 47.0236 8.31756 46.4053 8.74214 46.2958L8.83649 46.2722L8.92578 46.3126C9.36215 46.5148 9.07742 47.6992 8.9797 48.0581Z" fill="#52439A"/>
<path d="M43.8588 35.9054C45.9608 35.9054 47.6648 34.2014 47.6648 32.0994C47.6648 29.9974 45.9608 28.2933 43.8588 28.2933C41.7567 28.2933 40.0527 29.9974 40.0527 32.0994C40.0527 34.2014 41.7567 35.9054 43.8588 35.9054Z" fill="#52439A"/>
</svg>
